# File created by Blade
# Date/Time:  Tue Sep 30 19:12:23 2014
#---------------------------------------------------------
:version 1.10
:name HOM
:units
  mass 1.0
  length 1.000000
  angle deg
:documentation
     Acclaim Skeleton File
:root
   axis xyz
   order TX TY TZ RX RY RZ
   position 0.000000 0.000000 0.000000
   orientation 0 0 0
:bonedata
   begin
      id 1
      name Spine_dum
      direction 0.000000 1.000000 0.000000
      length 7.508948
      axis 0.0 0.0 0.0 xyz
   end
   begin
      id 2
      name LeftUpLeg_dum
      direction 1.000000 0.000000 0.000000
      length 3.000560
      axis 0.0 0.0 0.0 xyz
   end
   begin
      id 3
      name RightUpLeg_dum
      direction -1.000000 0.000000 0.000000
      length 3.000560
      axis 0.0 0.0 0.0 xyz
   end
   begin
      id 4
      name Spine
      direction 0.000000 1.000000 0.000000
      length 0.000000
      axis 0.0 0.0 0.0 xyz
      dof rx ry rz
   end
   begin
      id 5
      name Spine_dum1
      direction 0.000000 1.000000 0.000000
      length 13.861154
      axis 0.0 0.0 0.0 xyz
   end
   begin
      id 6
      name Spine_dum2
      direction 0.000000 1.000000 0.000000
      length 8.204781
      axis 0.0 0.0 0.0 xyz
   end
   begin
      id 7
      name Spine_dum3
      direction 0.000000 1.000000 0.000000
      length 8.204781
      axis 0.0 0.0 0.0 xyz
   end
   begin
      id 8
      name Head
      direction 0.000000 1.000000 0.000000
      length 4.527550
      axis 0.0 0.0 0.0 xyz
      dof rx ry rz
   end
   begin
      id 9
      name LeftShoulder
      direction 1.000000 0.000000 0.000000
      length 6.635956
      axis 0.0 0.0 -90.0 xyz
      dof rx ry rz
   end
   begin
      id 10
      name LeftArm
      direction 1.000000 0.000000 0.000000
      length 10.274218
      axis 0.0 0.0 -90.0 xyz
      dof rx ry rz
   end
   begin
      id 11
      name LeftForeArm
      direction 1.000000 0.000000 0.000000
      length 8.522147
      axis 0.0 0.0 -90.0 xyz
      dof ry rz rx
   end
   begin
      id 12
      name LeftHand
      direction 0.000000 0.000000 0.000000
      length 0.000000
      axis 0.0 0.0 -90.0 xyz
      dof rx ry rz
   end
   begin
      id 13
      name LeftHand_dum1
      direction 0.000000 0.000000 0.000000
      length 0.000000
      axis 0.0 0.0 -90.0 xyz
   end
   begin
      id 14
      name LeftHand_dum2
      direction 1.000000 0.000000 0.000000
      length 3.937000
      axis 0.0 0.0 -90.0 xyz
   end
   begin
      id 15
      name LeftHandThumb1
      direction 0.000000 0.000000 1.000000
      length 3.937000
      axis 0.0 0.0 -90.0 xyz
      dof rx rz ry
   end
   begin
      id 16
      name RightShoulder
      direction -1.000000 0.000000 0.000000
      length 6.635956
      axis 0.0 0.0 90.0 xyz
      dof rx ry rz
   end
   begin
      id 17
      name RightArm
      direction -1.000000 0.000000 0.000000
      length 10.274218
      axis 0.0 0.0 90.0 xyz
      dof rx ry rz
   end
   begin
      id 18
      name RightForeArm
      direction -1.000000 0.000000 0.000000
      length 8.522147
      axis 0.0 0.0 90.0 xyz
      dof ry rz rx
   end
   begin
      id 19
      name RightHand
      direction 0.000000 0.000000 0.000000
      length 0.000000
      axis 0.0 0.0 90.0 xyz
      dof rx ry rz
   end
   begin
      id 20
      name RightHand_dum1
      direction 0.000000 0.000000 0.000000
      length 0.000000
      axis 0.0 0.0 90.0 xyz
   end
   begin
      id 21
      name RightHand_dum2
      direction -1.000000 0.000000 0.000000
      length 3.937000
      axis 0.0 0.0 90.0 xyz
   end
   begin
      id 22
      name RightHandThumb1
      direction 0.000000 0.000000 1.000000
      length 3.937000
      axis 0.0 0.0 90.0 xyz
      dof rx rz ry
   end
   begin
      id 23
      name LeftUpLeg
      direction 0.000000 -1.000000 0.000000
      length 16.490845
      axis 0.0 0.0 0.0 xyz
      dof rx ry rz
   end
   begin
      id 24
      name LeftLeg
      direction 0.000000 -1.000000 0.000000
      length 14.556576
      axis 0.0 0.0 0.0 xyz
      dof rx ry rz
   end
   begin
      id 25
      name LeftFoot
      direction 0.000000 -0.258819 0.965926
      length 4.831116
      axis 15.0 0.0 0.0 xyz
      dof rx ry rz
   end
   begin
      id 26
      name LeftToeBase
      direction 0.000000 0.000000 1.000000
      length 2.952750
      axis 0.0 0.0 0.0 xyz
      dof rx ry rz
   end
   begin
      id 27
      name RightUpLeg
      direction 0.000000 -1.000000 0.000000
      length 16.490845
      axis 0.0 0.0 0.0 xyz
      dof rx ry rz
   end
   begin
      id 28
      name RightLeg
      direction 0.000000 -1.000000 0.000000
      length 14.556576
      axis 0.0 0.0 0.0 xyz
      dof rx ry rz
   end
   begin
      id 29
      name RightFoot
      direction 0.000000 -0.258819 0.965926
      length 4.831116
      axis 15.0 0.0 0.0 xyz
      dof rx ry rz
   end
   begin
      id 30
      name RightToeBase
      direction 0.000000 0.000000 1.000000
      length 2.952750
      axis 0.0 0.0 0.0 xyz
      dof rx ry rz
   end
:hierarchy
   begin
      root Spine_dum LeftUpLeg_dum RightUpLeg_dum
      Spine_dum Spine
      LeftUpLeg_dum LeftUpLeg
      RightUpLeg_dum RightUpLeg
      Spine Spine_dum1 Spine_dum2 Spine_dum3
      Spine_dum1 Head
      Spine_dum2 LeftShoulder
      Spine_dum3 RightShoulder
      LeftShoulder LeftArm
      LeftArm LeftForeArm
      LeftForeArm LeftHand
      LeftHand LeftHand_dum1 LeftHand_dum2
      LeftHand_dum1 LeftHandThumb1
      RightShoulder RightArm
      RightArm RightForeArm
      RightForeArm RightHand
      RightHand RightHand_dum1 RightHand_dum2
      RightHand_dum1 RightHandThumb1
      LeftUpLeg LeftLeg
      LeftLeg LeftFoot
      LeftFoot LeftToeBase
      RightUpLeg RightLeg
      RightLeg RightFoot
      RightFoot RightToeBase
   end

# File created by Blade
# Date/Time:  Thu Sep 25 17:43:48 2014
# Frame Rate: 120.000 fps
#------------------------------------------------------
:FULLY-SPECIFIED
:DEGREES
45
root 23.359023 32.026693 -1.315718 -338.467464 -106.392845 1.120477
Spine 7.094685 12.606964 2.450483
Head -43.936421 3.090431 -4.997084
LeftShoulder 2.268255 7.202393 19.073006
LeftArm 45.672096 -28.256726 -63.910899
LeftForeArm -26.118887 0.000000 110.243825
LeftHand -15.743732 -0.000000 -36.174840
LeftHandThumb1 -26.253704 0.000000 33.147579
RightShoulder -1.198272 27.826765 -36.948140
RightArm 26.047921 -1.308411 46.323642
RightForeArm -12.706854 -0.000000 50.757094
RightHand -6.757401 -0.000000 -32.204759
RightHandThumb1 -24.326973 -0.000000 -32.862282
LeftUpLeg -69.555592 9.900296 6.918358
LeftLeg 132.774370 -0.000000 -0.000000
LeftFoot 38.466361 14.040517 355.754963
LeftToeBase 25.498231 -0.000000 -0.000000
RightUpLeg -44.328387 5.198720 -1.420630
RightLeg 34.354598 -0.000000 -0.000000
RightFoot -12.414067 -0.806528 -11.234681
RightToeBase -2.271187 -0.000000 0.000000
46
root 22.993451 32.587173 -1.274248 -336.024858 -107.440629 -0.516675
Spine 7.105521 13.605138 0.263745
Head -44.561033 2.152043 -3.942750
LeftShoulder 2.693767 6.665957 20.640444
LeftArm 46.534123 -34.305392 -63.901708
LeftForeArm -26.798041 -0.000000 111.103382
LeftHand -15.729718 -0.000000 -35.690141
LeftHandThumb1 -26.253704 0.000000 33.147579
RightShoulder -0.322601 29.425086 -38.636228
RightArm 25.570261 1.097548 45.976409
RightForeArm -13.043685 -0.000000 47.967267
RightHand -6.088248 -0.000000 -31.976493
RightHandThumb1 -24.326973 -0.000000 -32.862282
LeftUpLeg -74.083268 11.361406 6.331513
LeftLeg 127.625434 -0.000000 -0.000000
LeftFoot 36.653503 14.757131 356.254618
LeftToeBase 24.306973 -0.000000 -0.000000
RightUpLeg -42.076465 4.021508 -1.515361
RightLeg 28.869246 -0.000000 -0.000000
RightFoot -9.098642 1.695234 -11.759228
RightToeBase -3.711044 -0.000000 0.000000
47
root 22.620474 33.193102 -1.243608 -333.225145 -108.471969 -2.379410
Spine 6.864041 14.378280 -2.417146
Head -45.267412 1.318339 -2.573629
LeftShoulder 2.975215 5.906975 22.445833
LeftArm 47.205931 -40.010631 -63.544304
LeftForeArm -26.528890 -0.000000 111.228250
LeftHand -15.227868 -0.000000 -36.115624
LeftHandThumb1 -26.253704 0.000000 33.147579
RightShoulder 0.350858 30.956063 -39.852713
RightArm 25.039610 2.806010 44.930922
RightForeArm -12.854277 -0.000000 44.758913
RightHand -5.097228 -0.000000 -31.166429
RightHandThumb1 -24.326973 -0.000000 -32.862282
LeftUpLeg -78.206448 12.733076 5.439534
LeftLeg 121.703689 -0.000000 -0.000000
LeftFoot 35.019434 14.653297 357.275067
LeftToeBase 23.117162 -0.000000 -0.000000
RightUpLeg -39.686976 2.419716 -1.504451
RightLeg 22.593420 -0.000000 -0.000000
RightFoot -4.485442 4.770601 -12.117552
RightToeBase -5.569038 -0.000000 0.000000
48
root 22.242041 33.829818 -1.236510 -330.704545 -109.483897 -3.909234
Spine 6.521052 15.073557 -5.311499
Head -46.015792 0.651087 -1.146770
LeftShoulder 3.202470 4.689026 24.537878
LeftArm 47.164462 -45.131230 -62.603357
LeftForeArm -25.923844 -0.000000 110.691882
LeftHand -15.104478 0.000000 -36.442002
LeftHandThumb1 -26.253704 0.000000 33.147579
RightShoulder 0.708950 32.141048 -40.668991
RightArm 24.755416 3.704658 43.026860
RightForeArm -12.227341 0.000000 41.303332
RightHand -4.855930 -0.000000 -30.392940
RightHandThumb1 -24.326973 -0.000000 -32.862282
LeftUpLeg -81.809526 14.090616 4.484472
LeftLeg 115.033071 -0.000000 -0.000000
LeftFoot 34.653932 14.299697 359.700026
LeftToeBase 19.814740 -0.000000 -0.000000
RightUpLeg -37.215144 0.472568 -1.185375
RightLeg 15.860406 -0.000000 -0.000000
RightFoot 1.787774 8.401537 -11.212904
RightToeBase -8.962020 -0.000000 0.000000
